<?xml version="1.0" standalone="no"?>
<!DOCTYPE svg PUBLIC "-//W3C//DTD SVG 20010904//EN"
 "http://www.w3.org/TR/2001/REC-SVG-20010904/DTD/svg10.dtd">
<svg version="1.0" xmlns="http://www.w3.org/2000/svg"
 width="1280.000000pt" height="697.000000pt" viewBox="0 0 1280.000000 697.000000"
 preserveAspectRatio="xMidYMid meet">
<metadata>
Created by potrace 1.16, written by Peter Selinger 2001-2019
</metadata>
<g transform="translate(0.000000,697.000000) scale(0.100000,-0.100000)"
fill="#000000" stroke="none">
<path d="M7370 5003 c-337 -152 -694 -312 -2035 -913 -616 -276 -1275 -572
-1465 -657 -190 -85 -448 -201 -575 -258 -126 -57 -367 -164 -535 -240 -168
-75 -367 -164 -442 -198 -75 -34 -136 -63 -134 -64 4 -4 107 8 316 36 150 20
193 26 640 86 146 20 297 40 335 45 268 36 843 112 901 120 l72 9 303 205
c167 113 579 389 914 614 586 394 1003 675 1669 1124 170 114 305 208 300 207
-5 0 -124 -52 -264 -116z"/>
<path d="M7745 5020 c15 -25 56 -88 90 -140 60 -92 119 -182 260 -400 37 -58
93 -142 122 -187 l55 -83 176 0 177 0 -46 43 c-26 23 -127 119 -225 213 -99
94 -192 183 -209 198 -16 15 -73 69 -125 119 -315 301 -315 301 -275 237z"/>
<path d="M8340 4140 c-80 -5 -311 -13 -515 -19 -203 -7 -493 -16 -644 -21
-151 -6 -446 -15 -655 -21 -210 -7 -390 -12 -401 -12 -10 -1 -91 -50 -180
-110 -88 -60 -211 -143 -274 -185 -131 -88 -130 -91 34 -73 55 6 330 34 610
61 281 27 553 54 605 60 52 6 370 37 705 70 1056 104 1150 113 1154 116 2 2
-23 35 -55 73 l-59 71 -90 -2 c-49 0 -155 -4 -235 -8z"/>
<path d="M8630 3885 c-107 -24 -508 -111 -890 -194 -740 -161 -801 -175 -895
-196 -33 -8 -105 -24 -160 -35 -55 -11 -118 -25 -140 -30 -22 -5 -94 -21 -160
-35 -66 -14 -138 -30 -160 -35 -22 -5 -94 -21 -160 -35 -66 -14 -138 -30 -160
-35 -22 -5 -168 -37 -325 -71 -393 -85 -488 -107 -465 -108 11 -1 61 6 110 13
50 8 153 24 230 35 77 11 264 39 415 61 151 23 410 61 575 85 165 25 408 61
540 80 132 20 317 47 410 61 94 13 197 28 230 33 33 5 139 21 235 35 96 14
236 35 310 46 74 12 180 27 235 35 174 25 239 35 261 40 17 4 29 -6 57 -48 19
-28 66 -97 104 -152 38 -55 116 -170 175 -255 58 -85 138 -202 177 -260 40
-58 93 -135 118 -172 25 -38 51 -68 57 -68 6 0 83 16 171 35 241 52 488 104
509 107 11 2 19 6 18 10 -1 5 -93 90 -205 190 -111 100 -204 185 -207 188 -3
3 -75 68 -160 145 -85 77 -160 144 -166 150 -113 106 -469 421 -477 422 -7 1
-100 -18 -207 -42z"/>
<path d="M8429 3436 c-4 -5 -210 -42 -649 -117 -96 -17 -197 -34 -225 -39 -27
-5 -115 -21 -195 -34 -80 -14 -197 -34 -260 -46 -63 -11 -155 -27 -205 -36
-49 -8 -108 -19 -130 -23 -36 -8 -37 -9 -10 -10 17 -1 109 -6 205 -11 96 -6
256 -14 355 -20 99 -5 308 -16 465 -25 303 -16 575 -31 783 -41 70 -4 127 -4
127 0 0 5 -33 65 -74 135 -40 69 -92 159 -115 199 -37 64 -57 83 -72 68z"/>
<path d="M2765 2598 c2 -35 7 -101 10 -148 3 -46 9 -87 13 -91 50 -43 332
-233 356 -240 17 -5 103 -9 192 -9 136 0 164 3 175 16 13 16 23 16 179 1 103
-11 424 -11 427 -1 10 31 -30 39 -246 46 -119 4 -261 10 -315 13 -85 6 -98 4
-88 -8 7 -7 9 -17 5 -20 -10 -11 -312 -8 -331 2 -9 5 -42 44 -72 86 -30 42
-79 109 -108 148 -30 40 -85 116 -123 170 -39 53 -72 97 -75 97 -2 0 -2 -28 1
-62z"/>
<path d="M3767 2654 c-4 -4 -7 -67 -7 -139 0 -113 3 -134 18 -148 27 -24 241
-126 302 -143 30 -9 62 -24 70 -35 8 -10 42 -30 75 -45 l60 -27 414 6 c230 4
419 11 424 16 5 5 6 19 2 31 -5 16 -11 19 -23 13 -19 -9 -744 -17 -779 -8 -25
6 -133 92 -133 106 0 5 43 9 98 9 166 0 323 12 319 24 -2 6 -18 21 -37 34 -32
21 -42 22 -259 23 -124 0 -234 4 -244 7 -26 11 -278 244 -286 265 -4 10 -10
15 -14 11z"/>
<path d="M6136 2578 c3 -46 9 -110 13 -142 l6 -59 130 -59 c72 -33 208 -93
302 -134 193 -82 184 -81 421 -67 108 6 112 7 112 29 0 17 -35 51 -147 140
-82 65 -156 124 -165 132 -10 8 -18 13 -18 9 0 -3 62 -57 138 -121 76 -63 144
-122 152 -130 11 -14 -4 -16 -146 -15 -88 1 -169 4 -181 7 -25 8 -583 470
-583 483 0 5 -9 9 -21 9 -19 0 -20 -4 -13 -82z"/>
<path d="M6920 2522 l0 -138 38 -19 c20 -10 151 -71 291 -136 l253 -119 117 1
c64 1 143 4 176 8 55 6 60 8 60 31 1 29 -2 30 100 -7 l80 -29 213 4 c209 4
213 5 210 25 -2 14 -26 33 -77 61 -41 22 -72 35 -68 29 3 -5 24 -18 47 -28 22
-10 40 -22 40 -27 0 -4 -89 -8 -197 -8 l-198 0 -178 91 c-98 50 -181 88 -184
85 -5 -5 27 -36 130 -125 20 -18 37 -37 37 -42 0 -5 -73 -9 -162 -9 l-163 0
-135 122 c-74 66 -184 165 -245 218 -60 54 -123 109 -138 124 -15 14 -32 26
-38 26 -5 0 -9 -58 -9 -138z"/>
<path d="M8172 2514 l3 -146 274 -124 273 -124 449 0 c438 0 449 0 449 19 0
23 -16 36 -25 21 -4 -6 -154 -10 -430 -10 l-424 0 -38 32 c-21 18 -105 96
-188 172 -82 77 -175 163 -205 191 -30 27 -70 65 -88 83 -19 17 -38 32 -43 32
-6 0 -8 -61 -7 -146z"/>
<path d="M4956 2557 c7 -50 13 -108 14 -129 0 -45 -8 -41 325 -197 l259 -121
90 0 c50 0 128 3 174 7 82 6 83 6 80 32 -3 30 -12 28 132 30 97 1 112 3 131
22 24 24 24 86 -1 80 -8 -2 -31 -7 -50 -12 -19 -5 -102 -9 -185 -9 l-150 0 50
-45 c27 -24 46 -48 41 -52 -4 -4 -77 -10 -161 -12 l-154 -3 -253 208 c-139
114 -276 227 -304 251 l-51 43 13 -93z"/>
<path d="M4613 2604 c20 -22 37 -43 37 -47 0 -4 -93 -7 -207 -7 -115 0 -214
-4 -221 -9 -11 -6 -7 -13 14 -30 25 -20 37 -21 252 -21 265 0 256 3 397 -116
107 -89 176 -144 155 -121 -49 51 -261 219 -295 233 -29 11 -45 26 -58 52 -9
20 -39 52 -65 71 l-47 34 38 -39z"/>
<path d="M8901 2550 l-214 -5 37 -32 37 -33 194 0 195 0 0 24 c0 34 -10 56
-24 54 -6 -1 -107 -5 -225 -8z"/>
<path d="M5465 2514 c17 -14 59 -48 94 -75 58 -44 69 -49 115 -49 l51 1 -35
31 c-19 16 -61 50 -94 74 -51 39 -64 44 -110 44 l-51 -1 30 -25z"/>
<path d="M9131 2362 l-235 -2 34 -35 34 -35 208 0 208 0 0 34 c0 19 -3 36 -7
38 -5 2 -113 2 -242 0z"/>
</g>
</svg>
